<svg xmlns="http://www.w3.org/2000/svg" width="83" height="24" viewBox="0 0 83 24" fill="none">
<path fill-rule="evenodd" clip-rule="evenodd" d="M4.9347 0.318902C4.48459 0.732035 3.94375 1.81696 3.78134 2.63268C3.71637 2.9591 3.66316 3.53418 3.66316 3.91058C3.66316 4.50868 3.64267 4.61341 3.50028 4.74162C3.41065 4.82232 3.27105 5.01768 3.18992 5.17585C3.10253 5.34642 2.97213 5.47748 2.8695 5.49796C1.7562 5.72035 0.71567 5.962 0.517604 6.04424C0.131447 6.20449 -0.0123277 6.49264 0.000820011 7.0798C0.0148185 7.70763 0.247611 8.34192 0.650009 8.84877C0.875222 9.13246 1.10198 9.30248 1.5487 9.52241L2.14166 9.73964L3.64738 9.8419C4.87697 9.86255 5.13228 9.51758 5.28933 9.30538C5.46571 9.06706 5.62756 8.68616 5.49194 8.4334C5.44157 8.388 5.37244 8.42857 5.2502 8.50031C5.01878 8.63614 4.59699 8.8837 3.75179 8.8711C2.95867 8.85924 2.23408 8.83329 2.14166 8.81335C1.92132 8.76583 1.49765 8.40822 1.49765 8.26969C1.49765 8.20993 1.55952 8.16103 1.63508 8.16103C1.83601 8.16103 2.0999 7.95412 2.23787 7.68845C2.41258 7.35202 2.24808 7.12978 1.73331 7.0068C1.0183 6.83601 1.09603 6.79835 2.85109 6.46523C4.29959 6.19024 4.39766 6.14381 4.77747 5.55402C5.17376 4.9386 5.57832 4.63835 6.10246 4.57098L6.48606 4.52162L6.20315 4.74347C5.33664 5.42304 5.1098 6.54339 5.72635 7.09898C5.84894 7.20941 5.94576 7.21965 6.34043 7.16413C7.24383 7.03699 8.09418 7.34378 8.74886 8.03298C9.40548 8.72433 9.66085 9.39104 9.6293 10.332C9.59581 11.3295 9.18057 11.9587 7.83301 13.0532C6.67283 13.9956 6.22256 14.5144 5.8122 15.3811C5.38134 16.2913 5.40261 16.8626 5.86734 16.8626C6.08126 16.8626 6.133 16.8018 6.63068 15.965C7.10601 15.166 7.35667 14.9461 7.64391 15.0765C7.91909 15.2013 7.89596 15.4786 7.57539 15.8967C6.74631 16.9781 6.69348 18.7776 7.44662 20.2765C7.78993 20.9597 7.93533 21.0392 8.84059 21.0392C9.33185 21.0392 9.66155 20.9911 10.072 20.8595L10.6324 20.6798L10.9305 20.061C11.3256 19.2406 11.4155 18.8808 11.427 18.0724C11.4373 17.354 11.4887 17.2513 11.8391 17.2488C12.1141 17.247 12.2007 17.5174 12.196 18.3642C12.192 19.0991 12.08 19.5954 11.7462 20.356C11.6876 20.4894 11.7126 20.4957 12.1008 20.4464C12.7618 20.3622 13.7057 20.1278 14.7637 19.785C15.3015 19.6109 15.7502 19.4798 15.7609 19.4938C15.7716 19.5078 15.8862 19.6752 16.0155 19.8658C16.6443 20.7928 17.5317 21.3335 18.5174 21.3904C19.101 21.424 19.8841 21.2721 20.119 21.0797C20.3764 20.8689 20.2448 21.1594 19.6733 22.0639C19.3306 22.6063 19.0118 23.096 18.9651 23.1521C18.8704 23.2657 17.2749 23.3034 17.2749 23.192C17.2749 23.0906 17.6514 22.6135 17.8657 22.4433C18.0934 22.2625 18.0406 22.1836 17.5911 22.0328C17.0467 21.8502 16.3438 21.3892 15.8657 20.9014C15.3908 20.4168 15.3628 20.4006 15.1438 20.4836C14.411 20.7612 12.5946 21.1703 10.8944 21.4405C9.71932 21.6272 9.50772 21.7886 8.82922 23.0158L8.69743 23.2541L8.69502 23.2544C8.1746 23.3272 7.57385 23.4112 6.57488 23.2424C6.57488 23.0948 6.96116 22.5801 7.13594 22.5249C7.26085 22.4854 7.26835 22.4361 7.20354 22.078C7.10199 21.517 6.8716 20.8603 6.56061 20.2454C6.34569 19.8204 6.17608 19.6223 5.65636 19.1893C4.85489 18.5218 4.44847 18.0829 4.01769 17.4199C3.31281 16.3349 3.00693 15.2384 3.01382 13.8209C3.01869 12.8152 3.11738 12.3309 3.52967 11.2898C3.7511 10.7306 3.76084 10.6683 3.65597 10.4823C3.49735 10.2008 3.18652 10.1033 2.94676 10.2597C2.69935 10.4211 2.23555 11.3685 2.03068 12.1313C1.80585 12.9682 1.78489 14.6175 1.98706 15.5535C2.27376 16.8806 3.02936 18.2284 4.06432 19.2589C4.69371 19.8856 4.8586 20.2669 4.98389 21.3861C5.07979 22.2421 5.04878 22.3737 4.7364 22.4359C4.37897 22.507 4.12096 23.2429 3.95509 23.7159C3.90997 23.8446 4.00637 23.9839 4.14272 23.9834C4.30117 23.9828 4.38376 23.9817 4.4733 23.9805C4.79163 23.9761 5.19778 23.9706 9.41203 23.9833C9.52054 23.9837 9.62508 23.9283 9.6782 23.8337C9.75178 23.7026 9.81462 23.5742 9.87478 23.4512C10.1233 22.9431 10.3259 22.5289 11.0501 22.4143C12.1464 22.241 13.1954 22.0223 14.0267 21.794C14.4733 21.6712 14.8483 21.5683 14.86 21.5654C15.3044 22.0386 14.5482 22.4433 14.2305 22.6133C14.2041 22.6274 14.1807 22.64 14.1613 22.6508C13.96 22.7627 13.8689 23.4906 13.8273 23.8231C13.8173 23.9029 13.8861 23.9839 13.9665 23.9833C14.0719 23.9826 14.1437 23.9812 14.2051 23.98C14.3384 23.9774 14.4223 23.9757 14.6936 23.9839C15.5642 24.0094 17.1067 23.999 18.3462 23.9906C18.555 23.9891 18.7552 23.9878 18.9422 23.9867C19.4057 23.9839 19.8509 23.7829 20.1264 23.4101C20.2999 23.1754 20.4632 22.9349 20.6245 22.6765C22.1051 20.3056 23.8255 16.607 21.3061 14.2643C20.256 13.2879 18.8657 13.1297 16.4965 12.8644C14.559 12.6473 13.8193 12.3597 12.936 11.4802C12.1893 10.7369 11.8993 10.0999 11.4003 8.10775C11.1336 7.04346 11.129 7.00642 11.2618 7.0048C11.4455 7.00257 12.3935 6.24276 12.71 5.8441C13.5988 4.72445 14.06 3.27698 13.8816 2.16672C13.7854 1.56785 13.5526 1.36232 12.9266 1.32359C11.8737 1.25837 10.2677 2.08471 8.86727 3.41212L8.38684 3.86746L7.90052 3.74317C7.63301 3.67479 7.30996 3.60995 7.18258 3.59909L6.95103 3.57923L6.92759 3.00169C6.89689 2.24642 6.72543 1.55291 6.40052 0.870105C5.94878 -0.0790611 5.5371 -0.233919 4.9347 0.318902ZM16.2404 22.7914C16.0345 23.1846 15.9674 23.2529 15.7862 23.2534C15.6692 23.2538 15.5735 23.2336 15.5735 23.2085C15.5735 23.1102 16.2942 22.33 16.3851 22.33C16.4465 22.33 16.3935 22.4988 16.2404 22.7914ZM5.33379 23.2534C5.51507 23.2529 5.72683 22.9181 5.9327 22.5249C6.08584 22.2323 5.99411 22.0465 5.9327 22.0465C5.84183 22.0465 5.1211 23.1102 5.1211 23.2085C5.1211 23.2336 5.21685 23.2538 5.33379 23.2534Z" fill="#FF5C00"/>
<path fill-rule="evenodd" clip-rule="evenodd" d="M78.8472 5.16709C78.467 5.3367 78.0279 5.79691 77.8845 6.17598C77.6102 6.9014 77.8932 7.96165 78.4708 8.37262C79.1124 8.82895 80.3163 8.82895 80.9579 8.37262C81.9649 7.65617 81.8369 5.83768 80.7386 5.2574C80.2272 4.98719 79.3451 4.9451 78.8472 5.16709ZM34.0608 6.20584C31.7829 6.54006 30.3375 7.32674 29.5574 8.6567C28.3805 10.6632 28.3298 14.6433 29.4534 16.8145C29.7419 17.3718 30.6176 18.2313 31.2244 18.5528C32.1359 19.0356 33.1085 19.2791 34.5199 19.3781C37.4663 19.5845 39.243 18.9693 40.5057 17.3057C40.9938 16.6623 41.5592 15.6289 41.5592 15.3797C41.5592 15.2255 41.4159 15.164 39.5414 14.5133L38.3908 14.1138L38.1987 14.4863C37.6968 15.4592 36.8641 15.94 35.5583 16.0111C33.3287 16.1323 32.302 15.2664 32.1972 13.1765C32.1089 11.4162 32.5015 10.4593 33.5291 9.931C34.4867 9.43858 36.3185 9.47171 37.1724 9.99705C37.5572 10.2337 38.1885 10.9937 38.3302 11.3908C38.3518 11.4511 39.0565 11.2624 40.0049 10.9419L41.6425 10.3888L41.5431 10.1265C41.1834 9.17642 40.7438 8.48107 40.0837 7.81783C38.9142 6.6427 37.8577 6.25242 35.6931 6.19565C34.9637 6.17659 34.2291 6.18107 34.0608 6.20584ZM47.0172 9.66639C46.905 9.69218 46.5607 9.76424 46.2521 9.82652C43.9501 10.2909 42.55 12.3167 42.7095 14.952C42.849 17.2584 44.0883 18.7805 46.2426 19.2916C46.9581 19.4613 48.4967 19.4648 49.2106 19.2983C51.5634 18.7494 53.0075 16.7476 52.8545 14.2471C52.7134 11.941 51.5303 10.4055 49.4657 9.84844C48.9274 9.70319 47.363 9.58689 47.0172 9.66639ZM67.5801 9.76801C65.7817 10.1576 64.4172 11.4615 63.9558 13.2314C63.497 14.991 64.0469 17.0288 65.2857 18.16C66.2085 19.0027 67.2952 19.4113 68.6453 19.4233C69.5571 19.4314 70.2465 19.1975 70.7733 18.701L71.0651 18.4262L71.0221 19.3945C70.9929 20.0512 70.9215 20.472 70.8001 20.7021C70.4933 21.2835 70.234 21.3311 67.3733 21.3311H64.8196V23.9996L67.8036 23.9577C70.5178 23.9196 70.8481 23.8959 71.4551 23.6961C72.7768 23.2611 73.5125 22.5572 73.9263 21.3316C74.1438 20.6874 74.151 20.5143 74.1827 15.2409L74.2152 9.81327H71.7824L71.7186 10.1318C71.6835 10.307 71.6548 10.5646 71.6548 10.7042C71.6548 10.9563 71.6519 10.9555 71.2514 10.594C70.2756 9.71328 69.0771 9.44368 67.5801 9.76801ZM54.4136 12.4634H55.7399V16.7444H54.4136V19.2926H60.4327V16.7444H58.9804L59.0216 15.4448C59.0577 14.3079 59.0933 14.0912 59.3068 13.7134C59.7853 12.8659 60.7116 12.4634 62.1833 12.4634H63.0852V9.81327L62.2436 9.81409C60.6519 9.81551 59.5718 10.1028 58.7809 10.7353C58.5737 10.9009 58.3787 11.0364 58.3474 11.0364C58.3159 11.0364 58.2903 10.7612 58.2903 10.4248V9.81327H54.4136V12.4634ZM76.8578 12.4634H78.1841V16.7444H76.8578V19.2926H82.8769V16.7444H81.4487V9.81327H76.8578V12.4634ZM70.0989 12.767C70.6856 13.0965 70.976 13.5924 71.0242 14.3471C71.1211 15.8682 69.9391 16.8873 68.4828 16.5383C67.0129 16.1859 66.4592 14.2458 67.505 13.1121C68.1192 12.4463 69.2579 12.2948 70.0989 12.767ZM48.8533 12.7994C49.7211 13.2904 50.0365 14.667 49.5039 15.6394C48.9408 16.6678 47.1927 16.8659 46.2757 16.0053C45.7701 15.5306 45.6233 14.2017 45.9972 13.484C46.3349 12.8358 46.8359 12.5803 47.7824 12.5735C48.2894 12.5698 48.5415 12.623 48.8533 12.7994Z" fill="#FF5C00"/>
</svg>
